<?xml version="1.0" encoding="utf-8"?><!DOCTYPE svg PUBLIC "-//W3C//DTD SVG 1.1//EN" "http://www.w3.org/Graphics/SVG/1.1/DTD/svg11.dtd"><svg version="1.1" id="Ebene_1" xmlns="http://www.w3.org/2000/svg" xmlns:xlink="http://www.w3.org/1999/xlink" x="0" y="0" width="340" height="50" viewBox="0 0 340 50"><title>IEEE 754 single precision</title><rect x="100" y="27.5" fill="#9CD19C" width="230" height="10"/><rect x="10" y="17.5" fill="#FF3232" width="10" height="10"/><rect x="20" y="27.5" fill="#FFF2B2" width="80" height="10"/><rect x="10" y="27.5" fill="#FF8080" width="10" height="10"/><rect x="20" y="17.5" fill="#FFD600" width="80" height="10"/><rect x="100" y="17.5" fill="#34D134" width="230" height="10"/><line fill="none" stroke="#000000" stroke-width="0.5" x1="10" y1="17.5" x2="330" y2="17.5"/><line fill="none" stroke="#000000" stroke-width="0.5" x1="10" y1="27.5" x2="330" y2="27.5"/><line fill="none" stroke="#000000" stroke-width="0.5" stroke-linecap="round" x1="10" y1="37.5" x2="330" y2="37.5"/><line fill="none" stroke="#000000" stroke-width="0.5" stroke-linecap="round" x1="10" y1="37.5" x2="10" y2="12.5"/><line fill="none" stroke="#000000" stroke-width="0.5" stroke-linecap="round" x1="330" y1="37.5" x2="330" y2="12.5"/><line fill="none" stroke="#000000" stroke-width="0.5" x1="20" y1="37.5" x2="20" y2="17.5"/><line fill="none" stroke="#000000" stroke-width="0.5" x1="190" y1="27.5" x2="190" y2="17.5"/><line fill="none" stroke="#000000" stroke-width="0.5" x1="180" y1="27.5" x2="180" y2="17.5"/><line fill="none" stroke="#000000" stroke-width="0.5" stroke-linecap="round" x1="170" y1="27.5" x2="170" y2="12.5"/><line fill="none" stroke="#000000" stroke-width="0.5" x1="160" y1="27.5" x2="160" y2="17.5"/><line fill="none" stroke="#000000" stroke-width="0.5" x1="150" y1="27.5" x2="150" y2="17.5"/><line fill="none" stroke="#000000" stroke-width="0.5" x1="140" y1="27.5" x2="140" y2="17.5"/><line fill="none" stroke="#000000" stroke-width="0.5" x1="130" y1="27.5" x2="130" y2="17.5"/><line fill="none" stroke="#000000" stroke-width="0.5" x1="120" y1="27.5" x2="120" y2="17.5"/><line fill="none" stroke="#000000" stroke-width="0.5" x1="110" y1="27.5" x2="110" y2="17.5"/><line fill="none" stroke="#000000" stroke-width="0.5" x1="100" y1="37.5" x2="100" y2="17.5"/><line fill="none" stroke="#000000" stroke-width="0.5" stroke-linecap="round" x1="90" y1="27.5" x2="90" y2="12.5"/><line fill="none" stroke="#000000" stroke-width="0.5" x1="80" y1="27.5" x2="80" y2="17.5"/><line fill="none" stroke="#000000" stroke-width="0.5" x1="70" y1="27.5" x2="70" y2="17.5"/><line fill="none" stroke="#000000" stroke-width="0.5" x1="60" y1="27.5" x2="60" y2="17.5"/><line fill="none" stroke="#000000" stroke-width="0.5" x1="50" y1="27.5" x2="50" y2="17.5"/><line fill="none" stroke="#000000" stroke-width="0.5" x1="40" y1="27.5" x2="40" y2="17.5"/><line fill="none" stroke="#000000" stroke-width="0.5" x1="30" y1="27.5" x2="30" y2="17.5"/><line fill="none" stroke="#000000" stroke-width="0.5" x1="300" y1="27.5" x2="300" y2="17.5"/><line fill="none" stroke="#000000" stroke-width="0.5" x1="290" y1="27.5" x2="290" y2="17.5"/><line fill="none" stroke="#000000" stroke-width="0.5" x1="280" y1="27.5" x2="280" y2="17.5"/><line fill="none" stroke="#000000" stroke-width="0.5" x1="270" y1="27.5" x2="270" y2="17.5"/><line fill="none" stroke="#000000" stroke-width="0.5" x1="260" y1="27.5" x2="260" y2="17.5"/><line fill="none" stroke="#000000" stroke-width="0.5" stroke-linecap="round" x1="250" y1="27.5" x2="250" y2="12.5"/><line fill="none" stroke="#000000" stroke-width="0.5" x1="240" y1="27.5" x2="240" y2="17.5"/><line fill="none" stroke="#000000" stroke-width="0.5" x1="230" y1="27.5" x2="230" y2="17.5"/><line fill="none" stroke="#000000" stroke-width="0.5" x1="220" y1="27.5" x2="220" y2="17.5"/><line fill="none" stroke="#000000" stroke-width="0.5" x1="210" y1="27.5" x2="210" y2="17.5"/><line fill="none" stroke="#000000" stroke-width="0.5" x1="200" y1="27.5" x2="200" y2="17.5"/><line fill="none" stroke="#000000" stroke-width="0.5" x1="320" y1="27.5" x2="320" y2="17.5"/><line fill="none" stroke="#000000" stroke-width="0.5" x1="310" y1="27.5" x2="310" y2="17.5"/><path d="M14.652,24.521l-1.324-4.042h0.568l0.63,1.991c0.168,0.546,0.317,1.037,0.433,1.512h0.012c0.114-0.468,0.276-0.978,0.462-1.506l0.685-1.997h0.558l-1.445,4.042H14.652z"/><polygon points="25.953,22.626 24.389,22.626 24.389,24.083 26.14,24.083 26.14,24.521 23.86,24.521 23.86,20.479 26.05,20.479 26.05,20.917 24.389,20.917 24.389,22.194 25.953,22.194 "/><polygon points="35.953,22.626 34.389,22.626 34.389,24.083 36.14,24.083 36.14,24.521 33.86,24.521 33.86,20.479 36.05,20.479 36.05,20.917 34.389,20.917 34.389,22.194 35.953,22.194 "/><polygon points="45.953,22.626 44.389,22.626 44.389,24.083 46.14,24.083 46.14,24.521 43.86,24.521 43.86,20.479 46.05,20.479 46.05,20.917 44.389,20.917 44.389,22.194 45.953,22.194 "/><polygon points="55.953,22.626 54.389,22.626 54.389,24.083 56.14,24.083 56.14,24.521 53.86,24.521 53.86,20.479 56.05,20.479 56.05,20.917 54.389,20.917 54.389,22.194 55.953,22.194 "/><polygon points="65.953,22.626 64.389,22.626 64.389,24.083 66.14,24.083 66.14,24.521 63.86,24.521 63.86,20.479 66.05,20.479 66.05,20.917 64.389,20.917 64.389,22.194 65.953,22.194 "/><polygon points="75.953,22.626 74.389,22.626 74.389,24.083 76.14,24.083 76.14,24.521 73.86,24.521 73.86,20.479 76.05,20.479 76.05,20.917 74.389,20.917 74.389,22.194 75.953,22.194 "/><polygon points="85.953,22.626 84.389,22.626 84.389,24.083 86.14,24.083 86.14,24.521 83.86,24.521 83.86,20.479 86.05,20.479 86.05,20.917 84.389,20.917 84.389,22.194 85.953,22.194 "/><polygon points="95.953,22.626 94.389,22.626 94.389,24.083 96.14,24.083 96.14,24.521 93.86,24.521 93.86,20.479 96.05,20.479 96.05,20.917 94.389,20.917 94.389,22.194 95.953,22.194 "/><path d="M316.45,22.746c-0.028-0.564-0.065-1.248-0.065-1.745h-0.013c-0.143,0.468-0.305,0.978-0.51,1.535l-0.713,1.961h-0.396l-0.658-1.925c-0.193-0.576-0.351-1.092-0.463-1.571h-0.013c-0.012,0.504-0.043,1.175-0.077,1.787l-0.107,1.733h-0.498l0.281-4.043h0.666l0.688,1.955c0.168,0.498,0.301,0.941,0.408,1.361h0.012c0.107-0.407,0.252-0.852,0.433-1.361l0.721-1.955h0.664l0.252,4.043h-0.516L316.45,22.746z"/><path d="M326.45,22.746c-0.028-0.564-0.065-1.248-0.065-1.745h-0.013c-0.143,0.468-0.305,0.978-0.51,1.535l-0.713,1.961h-0.396l-0.658-1.925c-0.193-0.576-0.351-1.092-0.463-1.571h-0.013c-0.012,0.504-0.043,1.175-0.077,1.787l-0.107,1.733h-0.498l0.281-4.043h0.666l0.688,1.955c0.168,0.498,0.301,0.941,0.408,1.361h0.012c0.107-0.407,0.252-0.852,0.433-1.361l0.721-1.955h0.664l0.252,4.043h-0.516L326.45,22.746z"/><path d="M306.45,22.746c-0.028-0.564-0.065-1.248-0.065-1.745h-0.013c-0.143,0.468-0.305,0.978-0.51,1.535l-0.713,1.961h-0.396l-0.658-1.925c-0.193-0.576-0.351-1.092-0.463-1.571h-0.013c-0.012,0.504-0.043,1.175-0.077,1.787l-0.107,1.733h-0.498l0.281-4.043h0.666l0.688,1.955c0.168,0.498,0.301,0.941,0.408,1.361h0.012c0.107-0.407,0.252-0.852,0.433-1.361l0.721-1.955h0.664l0.252,4.043h-0.516L306.45,22.746z"/><path d="M296.451,22.746c-0.029-0.564-0.066-1.248-0.066-1.745h-0.012c-0.144,0.468-0.306,0.978-0.511,1.535l-0.713,1.961h-0.396l-0.658-1.925c-0.193-0.576-0.35-1.092-0.463-1.571h-0.012c-0.013,0.504-0.043,1.175-0.078,1.787l-0.107,1.733h-0.498l0.281-4.043h0.666l0.688,1.955c0.169,0.498,0.302,0.941,0.408,1.361h0.013c0.106-0.407,0.252-0.852,0.432-1.361l0.721-1.955h0.664l0.252,4.043h-0.516L296.451,22.746z"/><path d="M286.451,22.746c-0.029-0.564-0.066-1.248-0.066-1.745h-0.012c-0.144,0.468-0.306,0.978-0.511,1.535l-0.713,1.961h-0.396l-0.658-1.925c-0.193-0.576-0.35-1.092-0.463-1.571h-0.012c-0.013,0.504-0.043,1.175-0.078,1.787l-0.107,1.733h-0.498l0.281-4.043h0.666l0.688,1.955c0.169,0.498,0.302,0.941,0.408,1.361h0.013c0.106-0.407,0.252-0.852,0.432-1.361l0.721-1.955h0.664l0.252,4.043h-0.516L286.451,22.746z"/><path d="M276.451,22.746c-0.029-0.564-0.066-1.248-0.066-1.745h-0.012c-0.144,0.468-0.306,0.978-0.511,1.535l-0.713,1.961h-0.396l-0.658-1.925c-0.193-0.576-0.35-1.092-0.463-1.571h-0.012c-0.013,0.504-0.043,1.175-0.078,1.787l-0.107,1.733h-0.498l0.281-4.043h0.666l0.688,1.955c0.169,0.498,0.302,0.941,0.408,1.361h0.013c0.106-0.407,0.252-0.852,0.432-1.361l0.721-1.955h0.664l0.252,4.043h-0.516L276.451,22.746z"/><path d="M266.451,22.746c-0.029-0.564-0.066-1.248-0.066-1.745h-0.012c-0.144,0.468-0.306,0.978-0.511,1.535l-0.713,1.961h-0.396l-0.658-1.925c-0.193-0.576-0.35-1.092-0.463-1.571h-0.012c-0.013,0.504-0.043,1.175-0.078,1.787l-0.107,1.733h-0.498l0.281-4.043h0.666l0.688,1.955c0.169,0.498,0.302,0.941,0.408,1.361h0.013c0.106-0.407,0.252-0.852,0.432-1.361l0.721-1.955h0.664l0.252,4.043h-0.516L266.451,22.746z"/><path d="M256.451,22.746c-0.029-0.564-0.066-1.248-0.066-1.745h-0.012c-0.144,0.468-0.306,0.978-0.511,1.535l-0.713,1.961h-0.396l-0.658-1.925c-0.193-0.576-0.35-1.092-0.463-1.571h-0.012c-0.013,0.504-0.043,1.175-0.078,1.787l-0.107,1.733h-0.498l0.281-4.043h0.666l0.689,1.955c0.168,0.498,0.301,0.941,0.407,1.361h0.013c0.106-0.407,0.252-0.852,0.432-1.361l0.721-1.955h0.664l0.252,4.043h-0.516L256.451,22.746z"/><path d="M246.451,22.746c-0.029-0.564-0.066-1.248-0.066-1.745h-0.012c-0.144,0.468-0.306,0.978-0.511,1.535l-0.713,1.961h-0.396l-0.658-1.925c-0.193-0.576-0.35-1.092-0.463-1.571h-0.012c-0.013,0.504-0.043,1.175-0.078,1.787l-0.107,1.733h-0.498l0.281-4.043h0.666l0.689,1.955c0.168,0.498,0.301,0.941,0.407,1.361h0.013c0.106-0.407,0.252-0.852,0.432-1.361l0.721-1.955h0.664l0.252,4.043h-0.516L246.451,22.746z"/><path d="M236.451,22.746c-0.029-0.564-0.066-1.248-0.066-1.745h-0.012c-0.144,0.468-0.306,0.978-0.511,1.535l-0.713,1.961h-0.396l-0.658-1.925c-0.193-0.576-0.35-1.092-0.463-1.571h-0.012c-0.013,0.504-0.043,1.175-0.078,1.787l-0.107,1.733h-0.498l0.281-4.043h0.666l0.689,1.955c0.168,0.498,0.301,0.941,0.407,1.361h0.013c0.106-0.407,0.252-0.852,0.432-1.361l0.721-1.955h0.664l0.252,4.043h-0.516L236.451,22.746z"/><path d="M226.451,22.746c-0.029-0.564-0.066-1.248-0.066-1.745h-0.012c-0.144,0.468-0.306,0.978-0.511,1.535l-0.713,1.961h-0.396l-0.658-1.925c-0.193-0.576-0.35-1.092-0.463-1.571h-0.012c-0.013,0.504-0.043,1.175-0.078,1.787l-0.107,1.733h-0.498l0.281-4.043h0.666l0.689,1.955c0.168,0.498,0.301,0.941,0.407,1.361h0.013c0.106-0.407,0.252-0.852,0.432-1.361l0.721-1.955h0.664l0.252,4.043h-0.516L226.451,22.746z"/><path d="M216.451,22.746c-0.029-0.564-0.066-1.248-0.066-1.745h-0.012c-0.144,0.468-0.306,0.978-0.511,1.535l-0.713,1.961h-0.396l-0.658-1.925c-0.193-0.576-0.35-1.092-0.463-1.571h-0.012c-0.013,0.504-0.043,1.175-0.078,1.787l-0.107,1.733h-0.498l0.281-4.043h0.666l0.689,1.955c0.168,0.498,0.301,0.941,0.407,1.361h0.013c0.106-0.407,0.252-0.852,0.432-1.361l0.721-1.955h0.664l0.252,4.043h-0.516L216.451,22.746z"/><path d="M206.451,22.746c-0.029-0.564-0.066-1.248-0.066-1.745h-0.012c-0.144,0.468-0.306,0.978-0.511,1.535l-0.713,1.961h-0.396l-0.658-1.925c-0.193-0.576-0.35-1.092-0.463-1.571h-0.012c-0.013,0.504-0.043,1.175-0.078,1.787l-0.107,1.733h-0.498l0.281-4.043h0.666l0.689,1.955c0.168,0.498,0.301,0.941,0.407,1.361h0.013c0.106-0.407,0.252-0.852,0.432-1.361l0.721-1.955h0.664l0.252,4.043h-0.516L206.451,22.746z"/><path d="M196.451,22.746c-0.029-0.564-0.066-1.248-0.066-1.745h-0.012c-0.144,0.468-0.306,0.978-0.511,1.535l-0.713,1.961h-0.396l-0.658-1.925c-0.193-0.576-0.35-1.092-0.463-1.571h-0.012c-0.013,0.504-0.043,1.175-0.078,1.787l-0.107,1.733h-0.498l0.281-4.043h0.666l0.689,1.955c0.168,0.498,0.301,0.941,0.407,1.361h0.013c0.106-0.407,0.252-0.852,0.432-1.361l0.721-1.955h0.664l0.252,4.043h-0.516L196.451,22.746z"/><path d="M186.451,22.746c-0.029-0.564-0.066-1.248-0.066-1.745h-0.012c-0.144,0.468-0.306,0.978-0.511,1.535l-0.713,1.961h-0.396l-0.658-1.925c-0.193-0.576-0.35-1.092-0.463-1.571h-0.012c-0.013,0.504-0.043,1.175-0.078,1.787l-0.107,1.733h-0.498l0.281-4.043h0.666l0.689,1.955c0.168,0.498,0.301,0.941,0.407,1.361h0.013c0.106-0.407,0.252-0.852,0.432-1.361l0.721-1.955h0.664l0.252,4.043h-0.516L186.451,22.746z"/><path d="M176.451,22.746c-0.029-0.564-0.066-1.248-0.066-1.745h-0.012c-0.144,0.468-0.306,0.978-0.511,1.535l-0.713,1.961h-0.396l-0.658-1.925c-0.193-0.576-0.35-1.092-0.463-1.571h-0.012c-0.013,0.504-0.043,1.175-0.078,1.787l-0.107,1.733h-0.498l0.281-4.043h0.666l0.689,1.955c0.168,0.498,0.301,0.941,0.407,1.361h0.013c0.106-0.407,0.252-0.852,0.432-1.361l0.721-1.955h0.664l0.252,4.043h-0.516L176.451,22.746z"/><path d="M166.451,22.746c-0.029-0.564-0.065-1.248-0.065-1.745h-0.013c-0.144,0.468-0.306,0.978-0.51,1.535l-0.714,1.961h-0.396l-0.659-1.925c-0.192-0.576-0.349-1.092-0.463-1.571h-0.012c-0.013,0.504-0.042,1.175-0.078,1.787l-0.107,1.733h-0.498l0.282-4.043h0.665l0.688,1.955c0.169,0.498,0.302,0.941,0.408,1.361h0.013c0.107-0.407,0.252-0.852,0.432-1.361l0.721-1.955h0.665l0.252,4.043h-0.516L166.451,22.746z"/><path d="M156.451,22.746c-0.029-0.564-0.065-1.248-0.065-1.745h-0.013c-0.144,0.468-0.306,0.978-0.51,1.535l-0.714,1.961h-0.396l-0.659-1.925c-0.192-0.576-0.349-1.092-0.463-1.571h-0.012c-0.013,0.504-0.042,1.175-0.078,1.787l-0.107,1.733h-0.498l0.282-4.043h0.665l0.688,1.955c0.169,0.498,0.302,0.941,0.408,1.361h0.013c0.107-0.407,0.252-0.852,0.432-1.361l0.721-1.955h0.665l0.252,4.043h-0.516L156.451,22.746z"/><path d="M146.451,22.746c-0.029-0.564-0.065-1.248-0.065-1.745h-0.013c-0.144,0.468-0.306,0.978-0.51,1.535l-0.714,1.961h-0.396l-0.659-1.925c-0.192-0.576-0.349-1.092-0.463-1.571h-0.012c-0.013,0.504-0.042,1.175-0.078,1.787l-0.107,1.733h-0.498l0.282-4.043h0.665l0.688,1.955c0.169,0.498,0.302,0.941,0.408,1.361h0.013c0.107-0.407,0.252-0.852,0.432-1.361l0.721-1.955h0.665l0.252,4.043h-0.516L146.451,22.746z"/><path d="M136.451,22.746c-0.029-0.564-0.065-1.248-0.065-1.745h-0.013c-0.144,0.468-0.306,0.978-0.51,1.535l-0.714,1.961h-0.396l-0.659-1.925c-0.192-0.576-0.349-1.092-0.463-1.571h-0.012c-0.013,0.504-0.042,1.175-0.078,1.787l-0.107,1.733h-0.498l0.282-4.043h0.665l0.688,1.955c0.169,0.498,0.302,0.941,0.408,1.361h0.013c0.107-0.407,0.252-0.852,0.432-1.361l0.721-1.955h0.665l0.252,4.043h-0.516L136.451,22.746z"/><path d="M126.451,22.746c-0.029-0.564-0.065-1.248-0.065-1.745h-0.013c-0.144,0.468-0.306,0.978-0.51,1.535l-0.714,1.961h-0.396l-0.659-1.925c-0.192-0.576-0.349-1.092-0.463-1.571h-0.012c-0.013,0.504-0.042,1.175-0.078,1.787l-0.107,1.733h-0.498l0.282-4.043h0.665l0.688,1.955c0.169,0.498,0.302,0.941,0.408,1.361h0.013c0.107-0.407,0.252-0.852,0.432-1.361l0.721-1.955h0.665l0.252,4.043h-0.516L126.451,22.746z"/><path d="M116.451,22.746c-0.029-0.564-0.065-1.248-0.065-1.745h-0.013c-0.144,0.468-0.306,0.978-0.51,1.535l-0.714,1.961h-0.396l-0.659-1.925c-0.192-0.576-0.349-1.092-0.463-1.571h-0.012c-0.013,0.504-0.042,1.175-0.078,1.787l-0.107,1.733h-0.498l0.282-4.043h0.665l0.688,1.955c0.169,0.498,0.302,0.941,0.408,1.361h0.013c0.107-0.407,0.252-0.852,0.432-1.361l0.721-1.955h0.665l0.252,4.043h-0.516L116.451,22.746z"/><path d="M106.451,22.746c-0.03-0.564-0.066-1.248-0.066-1.745h-0.012c-0.145,0.468-0.307,0.978-0.51,1.535l-0.714,1.961h-0.396l-0.66-1.925c-0.192-0.576-0.348-1.092-0.462-1.571h-0.012c-0.013,0.504-0.042,1.175-0.078,1.787l-0.108,1.733h-0.498l0.282-4.043h0.666l0.688,1.955c0.169,0.498,0.301,0.941,0.408,1.361h0.013c0.107-0.407,0.252-0.852,0.432-1.361l0.72-1.955h0.666l0.252,4.043h-0.516L106.451,22.746z"/><g id="Exponent"><polygon points="47.151,32.585 45.064,32.585 45.064,34.525 47.399,34.525 47.399,35.109 44.361,35.109 44.361,29.723 47.279,29.723 47.279,30.307 45.064,30.307 45.064,32.009 47.151,32.009 	"/><path d="M48.609,31.241l0.553,0.831c0.151,0.216,0.271,0.406,0.398,0.623h0.017c0.128-0.225,0.256-0.424,0.392-0.631l0.536-0.823h0.768l-1.318,1.87l1.351,1.998h-0.792l-0.576-0.871c-0.151-0.225-0.28-0.438-0.416-0.672h-0.016c-0.128,0.231-0.256,0.438-0.408,0.672l-0.56,0.871h-0.775l1.375-1.976l-1.311-1.896L48.609,31.241L48.609,31.241z"/><path d="M51.984,32.505c0-0.496-0.016-0.896-0.031-1.264h0.624l0.04,0.663h0.016c0.28-0.473,0.744-0.743,1.375-0.743c0.943,0,1.646,0.791,1.646,1.959c0,1.392-0.855,2.077-1.767,2.077c-0.512,0-0.959-0.223-1.191-0.606H52.68v2.104h-0.696V32.505z M52.68,33.536c0,0.104,0.008,0.198,0.032,0.286c0.128,0.488,0.551,0.824,1.055,0.824c0.744,0,1.175-0.606,1.175-1.496c0-0.769-0.407-1.432-1.15-1.432c-0.479,0-0.937,0.336-1.063,0.864c-0.023,0.088-0.048,0.19-0.048,0.278V33.536z"/><path d="M60.039,33.145c0,1.433-1,2.056-1.928,2.056c-1.039,0-1.854-0.769-1.854-1.99c0-1.287,0.854-2.047,1.919-2.047C59.287,31.161,60.039,31.968,60.039,33.145z M56.977,33.186c0,0.849,0.48,1.485,1.167,1.485c0.671,0,1.175-0.631,1.175-1.504c0-0.653-0.327-1.479-1.159-1.479C57.336,31.688,56.977,32.456,56.977,33.186z"/><path d="M60.929,32.288c0-0.408-0.008-0.728-0.032-1.047h0.624l0.04,0.639h0.017c0.191-0.358,0.64-0.719,1.278-0.719c0.536,0,1.367,0.319,1.367,1.646v2.303H63.52V32.88c0-0.623-0.231-1.144-0.896-1.144c-0.456,0-0.815,0.328-0.943,0.72c-0.032,0.088-0.048,0.209-0.048,0.328v2.325h-0.704V32.288z"/><path d="M65.76,33.305c0.016,0.95,0.616,1.344,1.327,1.344c0.504,0,0.814-0.088,1.071-0.201l0.128,0.505c-0.248,0.112-0.681,0.248-1.295,0.248c-1.191,0-1.903-0.791-1.903-1.959c0-1.166,0.688-2.078,1.814-2.078c1.271,0,1.6,1.104,1.6,1.813c0,0.146-0.008,0.248-0.024,0.328H65.76z M67.823,32.8c0.009-0.438-0.184-1.135-0.975-1.135c-0.72,0-1.022,0.646-1.08,1.135H67.823z"/><path d="M69.376,32.288c0-0.408-0.008-0.728-0.032-1.047h0.624l0.04,0.639h0.016c0.192-0.358,0.641-0.719,1.279-0.719c0.536,0,1.367,0.319,1.367,1.646v2.303h-0.704V32.88c0-0.623-0.232-1.144-0.896-1.144c-0.456,0-0.814,0.328-0.942,0.72c-0.032,0.088-0.048,0.209-0.048,0.328v2.325h-0.704L69.376,32.288L69.376,32.288z"/><path d="M74.632,30.313v0.93h1.007v0.533h-1.007v2.088c0,0.48,0.136,0.75,0.528,0.75c0.191,0,0.304-0.016,0.407-0.047l0.032,0.535c-0.136,0.049-0.352,0.096-0.624,0.096c-0.328,0-0.591-0.109-0.759-0.295c-0.192-0.217-0.272-0.561-0.272-1.016v-2.111h-0.6v-0.533h0.6V30.52L74.632,30.313z"/></g><g id="Plusminuszeichen"><polygon points="15.256,30.217 15.256,31.768 17.063,31.768 17.063,32.248 15.256,32.248 15.256,33.848 14.744,33.848 14.744,32.248 12.937,32.248 12.937,31.768 14.744,31.768 14.744,30.217 	"/><rect x="12.937" y="34.303" width="4.126" height="0.48"/></g><g id="Vorzeichen"><path d="M6.767,45.295L5,39.906h0.76l0.839,2.654c0.224,0.727,0.424,1.383,0.576,2.014h0.016c0.152-0.623,0.368-1.303,0.616-2.006l0.912-2.662h0.743l-1.927,5.389H6.767z"/><path d="M13.262,43.328c0,1.43-1,2.055-1.927,2.055c-1.04,0-1.855-0.768-1.855-1.992c0-1.287,0.855-2.047,1.919-2.047C12.51,41.344,13.262,42.152,13.262,43.328z M10.2,43.367c0,0.848,0.479,1.488,1.167,1.488c0.671,0,1.175-0.633,1.175-1.504c0-0.656-0.328-1.479-1.159-1.479C10.56,41.873,10.2,42.641,10.2,43.367z"/><path d="M14.151,42.633c0-0.457-0.008-0.848-0.031-1.209h0.615l0.032,0.768h0.024c0.176-0.52,0.607-0.848,1.08-0.848c0.071,0,0.128,0.01,0.191,0.018v0.662c-0.071-0.016-0.144-0.016-0.24-0.016c-0.495,0-0.848,0.369-0.942,0.896c-0.017,0.096-0.024,0.215-0.024,0.328v2.063h-0.704L14.151,42.633L14.151,42.633z"/><path d="M16.4,44.887l1.743-2.279c0.176-0.215,0.335-0.396,0.512-0.605v-0.018H16.56v-0.561h2.942v0.441l-1.728,2.246c-0.168,0.215-0.319,0.416-0.496,0.607v0.016h2.256v0.561H16.4V44.887z"/><path d="M20.6,43.488c0.017,0.951,0.616,1.342,1.327,1.342c0.504,0,0.815-0.088,1.071-0.199l0.128,0.504c-0.248,0.111-0.681,0.248-1.295,0.248c-1.191,0-1.903-0.791-1.903-1.959s0.688-2.08,1.815-2.08c1.271,0,1.599,1.104,1.599,1.816c0,0.143-0.008,0.248-0.024,0.328H20.6z M22.663,42.984c0.008-0.439-0.185-1.137-0.977-1.137c-0.72,0-1.022,0.646-1.08,1.137H22.663z"/><path d="M24.999,40.338c0,0.238-0.168,0.432-0.448,0.432c-0.256,0-0.424-0.191-0.424-0.432s0.176-0.441,0.439-0.441C24.823,39.896,24.999,40.09,24.999,40.338z M24.215,45.295v-3.871h0.704v3.871H24.215z"/><path d="M28.846,45.158c-0.184,0.088-0.592,0.225-1.111,0.225c-1.167,0-1.927-0.791-1.927-1.975c0-1.191,0.816-2.064,2.079-2.064c0.416,0,0.784,0.105,0.975,0.209l-0.159,0.535c-0.168-0.088-0.433-0.184-0.815-0.184c-0.888,0-1.367,0.664-1.367,1.463c0,0.896,0.576,1.447,1.343,1.447c0.399,0,0.664-0.096,0.863-0.186L28.846,45.158z"/><path d="M29.671,39.617h0.704v2.424h0.016c0.112-0.201,0.288-0.385,0.504-0.504c0.208-0.121,0.456-0.193,0.721-0.193c0.52,0,1.351,0.32,1.351,1.648v2.303h-0.704v-2.223c0-0.625-0.232-1.145-0.896-1.145c-0.456,0-0.809,0.318-0.943,0.693c-0.04,0.104-0.048,0.209-0.048,0.336v2.336h-0.704V39.617z"/><path d="M34.503,43.488c0.016,0.951,0.616,1.342,1.327,1.342c0.504,0,0.814-0.088,1.07-0.199l0.128,0.504c-0.248,0.111-0.68,0.248-1.295,0.248c-1.19,0-1.902-0.791-1.902-1.959s0.688-2.08,1.814-2.08c1.271,0,1.6,1.104,1.6,1.816c0,0.143-0.009,0.248-0.024,0.328H34.503z M36.566,42.984c0.009-0.439-0.184-1.137-0.975-1.137c-0.72,0-1.023,0.646-1.08,1.137H36.566z"/><path d="M38.119,42.473c0-0.408-0.009-0.729-0.032-1.049h0.624l0.04,0.641h0.016c0.192-0.357,0.641-0.721,1.279-0.721c0.536,0,1.367,0.32,1.367,1.648v2.303H40.71v-2.23c0-0.625-0.232-1.145-0.896-1.145c-0.456,0-0.814,0.328-0.942,0.721c-0.032,0.088-0.049,0.207-0.049,0.326v2.328h-0.703V42.473z"/></g><g id="Bit"><path d="M10,4.12C10.304,4.048,10.792,4,11.271,4c0.696,0,1.145,0.12,1.472,0.392c0.279,0.208,0.455,0.527,0.455,0.951c0,0.528-0.352,0.983-0.91,1.184V6.55c0.512,0.12,1.11,0.544,1.11,1.344c0,0.464-0.184,0.823-0.464,1.079c-0.368,0.344-0.976,0.504-1.854,0.504c-0.479,0-0.849-0.032-1.08-0.063L10,4.12L10,4.12z M10.696,6.326h0.633c0.728,0,1.158-0.392,1.158-0.911c0-0.624-0.472-0.88-1.175-0.88c-0.319,0-0.504,0.024-0.616,0.048V6.326z M10.696,8.901c0.145,0.023,0.337,0.031,0.583,0.031c0.721,0,1.384-0.264,1.384-1.047c0-0.728-0.632-1.04-1.392-1.04h-0.576L10.696,8.901L10.696,8.901z"/><path d="M15.096,4.472c0,0.239-0.168,0.432-0.448,0.432c-0.256,0-0.424-0.192-0.424-0.432c0-0.24,0.176-0.44,0.44-0.44C14.92,4.031,15.096,4.224,15.096,4.472z M14.312,9.429v-3.87h0.704v3.87H14.312z"/><path d="M17.032,4.632v0.927h1.007v0.536h-1.007v2.087c0,0.479,0.136,0.751,0.527,0.751c0.192,0,0.304-0.016,0.408-0.048L18,9.421c-0.137,0.048-0.353,0.096-0.624,0.096c-0.328,0-0.591-0.112-0.759-0.296c-0.192-0.216-0.272-0.56-0.272-1.016v-2.11h-0.6V5.559h0.6v-0.72L17.032,4.632z"/></g><path d="M329,13.129c0,0.884-0.332,1.371-0.904,1.371c-0.508,0-0.854-0.476-0.863-1.335c0-0.876,0.381-1.352,0.908-1.352C328.684,11.813,329,12.301,329,13.129z M327.588,13.169c0,0.676,0.208,1.06,0.527,1.06c0.356,0,0.528-0.42,0.528-1.084c0-0.64-0.16-1.06-0.528-1.06C327.813,12.085,327.588,12.461,327.588,13.169z"/><g><path d="M247.757,13.088c-0.291-0.136-0.416-0.359-0.416-0.584c0-0.411,0.348-0.691,0.809-0.691c0.504,0,0.761,0.312,0.761,0.64c0,0.22-0.112,0.46-0.433,0.607v0.013c0.324,0.128,0.522,0.359,0.522,0.671c0,0.456-0.389,0.756-0.883,0.756c-0.545,0-0.872-0.319-0.872-0.699c0-0.328,0.194-0.564,0.516-0.7L247.757,13.088z M248.644,13.779c0-0.312-0.219-0.468-0.571-0.567c-0.304,0.088-0.468,0.292-0.468,0.54c-0.012,0.26,0.188,0.491,0.521,0.491C248.44,14.243,248.644,14.047,248.644,13.779z M247.677,12.48c-0.004,0.26,0.196,0.399,0.496,0.479c0.225-0.076,0.396-0.236,0.396-0.472c0-0.208-0.124-0.424-0.439-0.424C247.837,12.064,247.677,12.256,247.677,12.48z"/></g><g><path d="M165.973,12.183h-0.008l-0.451,0.243l-0.068-0.268l0.568-0.304h0.3v2.599h-0.341V12.183z"/><path d="M168.744,12.103c-0.072-0.004-0.164,0.004-0.265,0.02c-0.557,0.088-0.844,0.488-0.903,0.92h0.008c0.125-0.168,0.344-0.304,0.631-0.304c0.461,0,0.785,0.336,0.785,0.839c0,0.48-0.324,0.92-0.869,0.92c-0.552,0-0.916-0.432-0.916-1.107c0-0.512,0.181-0.915,0.439-1.171c0.217-0.212,0.505-0.344,0.832-0.384c0.104-0.017,0.192-0.021,0.257-0.021L168.744,12.103L168.744,12.103z M168.645,13.602c0-0.372-0.213-0.596-0.536-0.596c-0.212,0-0.412,0.128-0.509,0.32c-0.02,0.039-0.035,0.088-0.035,0.151c0.004,0.428,0.204,0.748,0.576,0.748C168.441,14.226,168.645,13.974,168.645,13.602z"/></g><g><path d="M85.165,14.478v-0.217l0.275-0.268c0.664-0.631,0.969-0.967,0.969-1.359c0-0.264-0.124-0.508-0.513-0.508c-0.235,0-0.432,0.121-0.552,0.221l-0.112-0.248c0.177-0.148,0.437-0.264,0.731-0.264c0.56,0,0.795,0.383,0.795,0.756c0,0.479-0.348,0.867-0.896,1.395l-0.203,0.191v0.008h1.162v0.293H85.165z"/><path d="M88.304,14.478v-0.713h-1.207v-0.227l1.159-1.66h0.38v1.615H89v0.271h-0.364v0.713L88.304,14.478L88.304,14.478z M88.304,13.493v-0.867c0-0.137,0.004-0.271,0.012-0.408h-0.012c-0.08,0.152-0.144,0.264-0.216,0.385l-0.636,0.883v0.008L88.304,13.493L88.304,13.493z"/></g><g><path d="M91,14.456V14.24l0.275-0.269c0.664-0.631,0.969-0.967,0.969-1.358c0-0.265-0.124-0.508-0.513-0.508c-0.235,0-0.432,0.119-0.552,0.22l-0.112-0.248c0.177-0.147,0.437-0.264,0.731-0.264c0.56,0,0.795,0.384,0.795,0.756c0,0.479-0.348,0.867-0.896,1.395l-0.203,0.192v0.008h1.163v0.292H91z"/><path d="M93.136,14.056c0.1,0.061,0.328,0.16,0.576,0.16c0.448,0,0.592-0.284,0.588-0.504c-0.004-0.363-0.332-0.52-0.672-0.52h-0.196v-0.264h0.196c0.256,0,0.58-0.132,0.58-0.439c0-0.208-0.132-0.393-0.456-0.393c-0.208,0-0.408,0.093-0.521,0.172l-0.096-0.256c0.14-0.1,0.404-0.199,0.684-0.199c0.513,0,0.744,0.304,0.744,0.619c0,0.272-0.164,0.5-0.479,0.616v0.008c0.319,0.06,0.576,0.3,0.58,0.664c0,0.415-0.328,0.779-0.947,0.779c-0.292,0-0.548-0.092-0.676-0.176L93.136,14.056z"/></g><g><path d="M11.096,14.056c0.1,0.061,0.328,0.16,0.576,0.16c0.448,0,0.592-0.284,0.588-0.504c-0.004-0.363-0.332-0.52-0.672-0.52h-0.196v-0.264h0.196c0.256,0,0.58-0.132,0.58-0.439c0-0.208-0.132-0.393-0.456-0.393c-0.208,0-0.408,0.093-0.521,0.172l-0.096-0.256c0.14-0.1,0.404-0.199,0.684-0.199c0.513,0,0.744,0.304,0.744,0.619c0,0.272-0.164,0.5-0.479,0.616v0.008c0.32,0.06,0.576,0.3,0.58,0.664c0,0.415-0.328,0.779-0.947,0.779c-0.292,0-0.548-0.092-0.676-0.176L11.096,14.056z"/><path d="M13.827,12.186h-0.009l-0.451,0.243L13.3,12.161l0.567-0.304h0.3v2.599h-0.34V12.186z"/></g><g><path d="M171.527,12.163h-0.008l-0.452,0.244L171,12.139l0.566-0.304h0.301v2.599h-0.341V12.163L171.527,12.163z"/><path d="M174.367,12.131h-0.992l-0.101,0.668c0.061-0.008,0.116-0.012,0.212-0.012c0.204,0,0.399,0.04,0.561,0.14c0.204,0.112,0.372,0.34,0.372,0.663c0,0.508-0.404,0.888-0.968,0.888c-0.284,0-0.521-0.08-0.647-0.159l0.088-0.269c0.108,0.064,0.319,0.145,0.561,0.145c0.327,0,0.615-0.216,0.61-0.564c0-0.335-0.228-0.571-0.743-0.571c-0.151,0-0.268,0.012-0.363,0.024l0.168-1.248h1.244L174.367,12.131L174.367,12.131z"/></g><g><path d="M252.64,11.857v0.231l-1.132,2.367h-0.363l1.127-2.299v-0.008H251v-0.292L252.64,11.857L252.64,11.857z"/></g><g><path d="M205.259,32.787c-0.04-0.75-0.088-1.662-0.088-2.326h-0.017c-0.191,0.625-0.407,1.303-0.68,2.047l-0.951,2.615h-0.527l-0.88-2.566c-0.256-0.768-0.464-1.455-0.615-2.096h-0.017c-0.016,0.672-0.056,1.568-0.104,2.383l-0.145,2.311h-0.663l0.376-5.389h0.888l0.919,2.607c0.224,0.662,0.399,1.254,0.544,1.814h0.016c0.145-0.543,0.336-1.135,0.576-1.814l0.959-2.607h0.888l0.336,5.389h-0.688L205.259,32.787z"/><path d="M209.891,34.227c0,0.336,0.017,0.664,0.057,0.928h-0.632l-0.056-0.486h-0.024c-0.216,0.303-0.632,0.574-1.184,0.574c-0.783,0-1.183-0.551-1.183-1.111c0-0.936,0.831-1.447,2.326-1.439v-0.08c0-0.311-0.088-0.895-0.88-0.887c-0.367,0-0.743,0.104-1.015,0.287l-0.16-0.471c0.319-0.199,0.792-0.336,1.279-0.336c1.184,0,1.471,0.807,1.471,1.574V34.227z M209.212,33.18c-0.768-0.016-1.64,0.119-1.64,0.871c0,0.465,0.304,0.672,0.655,0.672c0.512,0,0.84-0.32,0.952-0.646c0.023-0.08,0.032-0.16,0.032-0.225V33.18z"/><path d="M211.03,32.332c0-0.408-0.009-0.727-0.032-1.047h0.624l0.04,0.639h0.016c0.191-0.359,0.64-0.719,1.279-0.719c0.535,0,1.367,0.32,1.367,1.646v2.303h-0.704v-2.23c0-0.623-0.231-1.143-0.896-1.143c-0.455,0-0.815,0.328-0.943,0.719c-0.031,0.088-0.048,0.209-0.048,0.328v2.326h-0.703V32.332z"/><path d="M216.285,30.357v0.928h1.007v0.535h-1.007v2.088c0,0.479,0.136,0.75,0.527,0.75c0.191,0,0.304-0.016,0.407-0.047l0.032,0.535c-0.136,0.049-0.352,0.096-0.623,0.096c-0.328,0-0.592-0.111-0.76-0.295c-0.192-0.217-0.272-0.561-0.272-1.016V31.82h-0.6v-0.535h0.6v-0.721L216.285,30.357z"/><path d="M218.868,30.197c0,0.24-0.168,0.432-0.447,0.432c-0.256,0-0.424-0.191-0.424-0.432s0.176-0.439,0.439-0.439C218.693,29.758,218.868,29.949,218.868,30.197z M218.085,35.154v-3.869h0.703v3.869H218.085z"/><path d="M219.861,34.443c0.217,0.127,0.584,0.271,0.936,0.271c0.504,0,0.744-0.248,0.744-0.576c0-0.336-0.2-0.512-0.712-0.703c-0.703-0.256-1.031-0.631-1.031-1.096c0-0.623,0.512-1.135,1.335-1.135c0.392,0,0.736,0.104,0.943,0.24l-0.168,0.512c-0.151-0.096-0.432-0.232-0.791-0.232c-0.416,0-0.64,0.24-0.64,0.527c0,0.32,0.224,0.465,0.728,0.664c0.664,0.248,1.016,0.584,1.016,1.16c0,0.688-0.536,1.166-1.439,1.166c-0.424,0-0.815-0.111-1.088-0.271L219.861,34.443z"/><path d="M223.029,34.443c0.217,0.127,0.584,0.271,0.936,0.271c0.504,0,0.744-0.248,0.744-0.576c0-0.336-0.2-0.512-0.712-0.703c-0.703-0.256-1.031-0.631-1.031-1.096c0-0.623,0.512-1.135,1.335-1.135c0.392,0,0.736,0.104,0.943,0.24l-0.168,0.512c-0.151-0.096-0.432-0.232-0.791-0.232c-0.416,0-0.64,0.24-0.64,0.527c0,0.32,0.224,0.465,0.728,0.664c0.664,0.248,1.016,0.584,1.016,1.16c0,0.688-0.536,1.166-1.439,1.166c-0.424,0-0.815-0.111-1.088-0.271L223.029,34.443z"/><path d="M226.685,33.348c0.016,0.951,0.615,1.344,1.327,1.344c0.504,0,0.815-0.088,1.071-0.201l0.128,0.504c-0.248,0.113-0.68,0.248-1.295,0.248c-1.191,0-1.903-0.791-1.903-1.959c0-1.166,0.688-2.078,1.815-2.078c1.271,0,1.599,1.104,1.599,1.814c0,0.145-0.008,0.248-0.023,0.328H226.685z M228.747,32.844c0.008-0.439-0.184-1.135-0.976-1.135c-0.72,0-1.023,0.646-1.079,1.135H228.747z"/></g></svg>